<?xml version="1.0" encoding="utf-8"?>
<!-- Generator: Adobe Illustrator 23.0.6, SVG Export Plug-In . SVG Version: 6.00 Build 0)  -->
<svg version="1.1" id="Слой_1" xmlns="http://www.w3.org/2000/svg" xmlns:xlink="http://www.w3.org/1999/xlink" x="0px" y="0px"
	 viewBox="0 0 50 50" style="enable-background:new 0 0 50 50;" xml:space="preserve">
<style type="text/css">
	.st0{fill:#7955E5;}
	.st1{fill:#EEEEEE;}
</style>
<circle class="st0" cx="25" cy="25" r="25"/>
<g>
	<path class="st1" d="M22.1,17l0.2-0.8c1.2-0.1,2.5-0.3,3.8-0.6c-0.4,1.1-0.6,1.9-0.8,2.6l-0.8,3.5c1.8,0,3.2-0.5,4.2-1.4
		c0.9-0.9,1.4-2,1.4-3.3c0-0.9-0.3-1.6-1-2.1S27.4,14,26,14c-1.9,0-3.7,0.4-5.4,1.3c-1.7,0.9-3,2.1-4,3.5s-1.4,2.9-1.4,4.3
		c0,0.4,0.1,0.8,0.2,1.1s0.3,0.6,0.5,0.9c0.1,0.2,0.4,0.4,0.8,0.7c0.5,0.3,0.8,0.6,0.9,0.7c0.1,0.2,0.2,0.4,0.2,0.6
		c0,0.2-0.1,0.4-0.2,0.6c-0.2,0.2-0.4,0.2-0.6,0.2c-0.6,0-1.2-0.4-1.8-1.3c-0.6-0.9-0.9-1.9-0.9-3.2c0-1.8,0.5-3.4,1.6-5.1
		s2.5-3,4.4-3.9c1.9-1,4-1.5,6.3-1.5c1.9,0,3.3,0.4,4.3,1.1c1,0.7,1.5,1.6,1.5,2.7c0,1-0.3,1.9-1,2.8c-0.7,0.8-1.7,1.5-3,1.9
		c0.9,0.1,1.6,0.4,2.2,0.7s0.9,0.8,1.2,1.3c0.3,0.5,0.4,1.1,0.4,1.8c0,1.1-0.3,2.2-1,3.2c-0.7,1-1.6,1.8-2.9,2.5c-1.3,0.7-2.6,1-4,1
		c-0.4,0-1.3,0-2.6-0.1c-0.6,0-1.3,0-2,0c-1.1,0-2,0.1-2.8,0.3l0.2-0.9c1.1-0.1,1.9-0.3,2.3-0.8c0.5-0.5,0.9-1.5,1.3-3.1l2.3-9.1
		c0.1-0.4,0.1-0.7,0.1-0.9c0-0.2-0.1-0.3-0.2-0.4c-0.1-0.1-0.3-0.2-0.5-0.2C22.3,16.9,22.2,16.9,22.1,17z M24.3,22.6l-0.8,3.1
		c-0.4,1.6-0.8,2.9-1.2,3.8c-0.2,0.5-0.5,1-0.9,1.3c0.9,0.2,1.7,0.3,2.4,0.3c1.8,0,3.2-0.6,4.1-1.7c0.9-1.1,1.4-2.4,1.4-3.8
		c0-0.7-0.2-1.3-0.5-1.8c-0.3-0.5-0.8-0.8-1.4-1S25.8,22.6,24.3,22.6z"/>
</g>
<circle class="st1" cx="37.2" cy="30.5" r="1.3"/>
</svg>
